<svg width="180" height="181" viewBox="0 0 180 181" fill="none" xmlns="http://www.w3.org/2000/svg">
<path d="M164.085 2.40919C172.934 2.45133 180.063 7.8102 180.009 14.3779C180.008 14.4802 180.006 14.583 180.002 14.6846L179.28 86.8008L176.822 165.968C176.791 166.086 176.756 166.201 176.723 166.315C176.1 172.681 171.901 178.01 165.035 179.974C158.112 181.953 150.206 180.017 144.118 175.484C144.098 175.487 144.078 175.489 144.058 175.491L57.749 112.142C57.1827 111.787 56.6401 111.4 56.1299 110.979C50.1052 106.002 50.614 98.2578 57.2646 93.6826C62.747 89.912 70.6916 89.4714 76.6885 92.2197C76.7558 92.227 76.824 92.2325 76.8916 92.2402L77.5986 92.6699C78.1444 92.9602 78.6714 93.2791 79.1748 93.626L121.258 119.162C121.273 119.166 121.288 119.169 121.303 119.173C125.726 122.014 131.833 122.865 137.048 120.961C142.27 119.054 145.169 114.905 144.943 110.521L147.95 13.7217C147.961 13.7091 147.973 13.6952 147.984 13.6826C148.42 7.36895 155.481 2.3686 164.085 2.40919ZM11.7783 1.60743C18.6476 -0.476457 26.604 1.34021 32.8115 5.78028C32.8312 5.7778 32.8514 5.7749 32.8711 5.77247L120.831 67.7988C121.411 68.1468 121.968 68.5296 122.493 68.9463C128.649 73.8308 128.347 81.5803 121.819 86.2549C116.438 90.1079 108.506 90.6681 102.438 88.0107C102.37 88.0045 102.301 87.9999 102.233 87.9932L101.514 87.5732C100.962 87.2919 100.428 86.9818 99.917 86.6436L57.1621 61.7461C57.1478 61.7427 57.1325 61.7397 57.1182 61.7363C52.6206 58.962 46.493 58.2033 41.3291 60.1856C36.1574 62.1712 33.3678 66.3634 33.71 70.7441L33.2734 167.569C33.2631 167.582 33.2526 167.595 33.2422 167.607C32.9744 173.927 26.0464 179.033 17.4434 179.122C8.59491 179.214 1.32482 173.963 1.20508 167.396C1.20315 167.289 1.20324 167.182 1.20508 167.076L0.00976562 94.9766L0.365234 15.7891C0.39394 15.6697 0.425527 15.5523 0.456055 15.4365C0.910942 9.06418 4.96722 3.67371 11.7783 1.60743Z" fill="#00D492"/>
</svg>
