<svg width="414" height="118" viewBox="0 0 414 118" fill="none" xmlns="http://www.w3.org/2000/svg">
<path d="M113.72 82.48C115.32 82.48 118.296 82.32 122.648 82C123.224 82 124.28 81.936 125.816 81.808L127.256 91.696C122.328 94 115.928 95.152 108.056 95.152C100.696 95.152 95.032 93.296 91.064 89.584C87.16 85.872 85.208 80.272 85.208 72.784C85.208 68.944 85.688 65.232 86.648 61.648C87.672 58.064 88.824 55.568 90.104 54.16C91.448 52.752 93.944 51.536 97.592 50.512C101.24 49.488 104.856 48.976 108.44 48.976C114.2 48.976 118.52 50 121.4 52.048C124.28 54.096 126.168 56.944 127.064 60.592C127.96 64.176 128.408 69.008 128.408 75.088C124.056 75.344 119.8 75.472 115.64 75.472H102.008C102.008 77.52 102.424 79.056 103.256 80.08C104.152 81.104 105.4 81.776 107 82.096C108.6 82.352 110.84 82.48 113.72 82.48ZM102.968 60.4C102.584 60.592 102.296 61.424 102.104 62.896C101.912 64.368 101.784 66.032 101.72 67.888H106.712C109.72 67.888 111.896 67.856 113.24 67.792C113.24 64.72 112.792 62.544 111.896 61.264C111.064 59.984 109.592 59.344 107.48 59.344C105.752 59.344 104.248 59.696 102.968 60.4ZM154.538 75.856C154.538 77.008 154.57 78.224 154.634 79.504C154.698 80.72 154.89 81.488 155.21 81.808C155.658 82.256 157.226 82.48 159.914 82.48L163.178 82.384C163.754 85.456 164.042 89.008 164.042 93.04C162.826 93.488 161.034 93.904 158.666 94.288C156.362 94.672 154.154 94.864 152.042 94.864C147.626 94.864 144.202 93.904 141.77 91.984C139.402 90 138.218 86.96 138.218 82.864V59.248H131.018V50.512L138.218 49.84L142.538 39.28L154.538 38.608V49.84H164.714V59.248H154.538V75.856ZM198.52 39.952H187.288V44.08C187.288 50.8 186.808 56.176 185.848 60.208C184.248 66.864 181.528 71.088 177.688 72.88V73.456C181.208 75.12 183.8 78.992 185.464 85.072C186.808 90.576 187.416 97.84 187.288 106.864H198.52V117.712C191.16 117.712 185.304 116.592 180.952 114.352C176.664 112.112 174.52 108.016 174.52 102.064C174.52 96.56 174.04 91.664 173.08 87.376C172.12 83.024 169.912 80.848 166.456 80.848C166.008 78.032 165.784 75.632 165.784 73.648C165.784 71.664 166.008 69.264 166.456 66.448C169.4 66.448 171.48 64.624 172.696 60.976C173.912 57.328 174.52 52.688 174.52 47.056C174.52 41.808 175.128 37.968 176.344 35.536C177.56 33.04 179.8 31.344 183.064 30.448C186.392 29.552 191.544 29.104 198.52 29.104V39.952ZM229.411 38.992C234.595 38.992 238.979 39.472 242.563 40.432C246.147 41.392 248.995 43.248 251.107 46C253.283 48.688 254.371 52.56 254.371 57.616C254.371 59.856 254.019 62.16 253.315 64.528C252.675 66.832 251.843 68.848 250.819 70.576C249.859 72.304 248.995 73.424 248.227 73.936C247.331 74.576 245.347 75.088 242.275 75.472C239.203 75.792 235.587 75.952 231.427 75.952C229.955 75.952 227.683 75.888 224.611 75.76V94H207.331V39.28C214.051 39.088 221.411 38.992 229.411 38.992ZM236.611 63.664C237.251 62.832 237.571 61.168 237.571 58.672C237.571 55.408 236.867 53.104 235.459 51.76C234.115 50.416 231.747 49.744 228.355 49.744C227.203 49.744 225.955 49.84 224.611 50.032V64.624C225.251 64.688 226.499 64.72 228.355 64.72C233.283 64.72 236.035 64.368 236.611 63.664ZM268.168 44.368C265.992 44.368 264.104 43.632 262.504 42.16C260.968 40.688 260.2 38.928 260.2 36.88C260.2 34.832 260.968 33.072 262.504 31.6C264.104 30.128 265.992 29.392 268.168 29.392C270.344 29.392 272.2 30.128 273.736 31.6C275.272 33.072 276.04 34.832 276.04 36.88C276.04 38.928 275.272 40.688 273.736 42.16C272.2 43.632 270.344 44.368 268.168 44.368ZM259.912 49.84H276.328V94H259.912V49.84ZM321.619 92.656C316.435 94.384 310.643 95.248 304.243 95.248C297.075 95.248 291.699 93.456 288.115 89.872C284.595 86.224 282.835 80.56 282.835 72.88C282.835 69.104 283.347 65.392 284.371 61.744C285.395 58.032 286.483 55.536 287.635 54.256C288.979 52.784 291.603 51.536 295.507 50.512C299.475 49.488 303.571 48.976 307.795 48.976C312.211 48.976 316.659 49.36 321.139 50.128C321.011 51.728 320.787 53.616 320.467 55.792C320.211 57.904 319.923 59.792 319.603 61.456C315.635 61.2 311.891 61.072 308.371 61.072C304.915 61.072 302.707 61.264 301.747 61.648C301.235 61.84 300.755 63.152 300.307 65.584C299.923 68.016 299.731 70.288 299.731 72.4C299.731 75.216 300.115 77.392 300.883 78.928C301.715 80.4 302.995 81.424 304.723 82C306.451 82.576 308.787 82.864 311.731 82.864C313.011 82.864 315.827 82.736 320.179 82.48L321.619 92.656ZM374.068 94H356.212L347.092 76.048C346.196 74.192 345.012 73.008 343.54 72.496V94H327.124V36.4L343.54 35.728V68.464C345.076 67.824 346.388 66.512 347.476 64.528L355.636 49.84L373.588 49.744L364.276 64.72C362.804 67.088 361.204 68.976 359.476 70.384C360.948 71.984 362.612 74.416 364.468 77.68L374.068 94ZM407.897 66.448C408.345 68.688 408.569 71.088 408.569 73.648C408.569 76.208 408.345 78.608 407.897 80.848C404.441 80.848 402.233 83.024 401.273 87.376C400.313 91.664 399.833 96.56 399.833 102.064C399.833 108.016 397.657 112.112 393.305 114.352C389.017 116.592 383.193 117.712 375.833 117.712V106.864H387.065C386.937 97.84 387.545 90.576 388.889 85.072C390.553 78.992 393.145 75.12 396.665 73.456V72.88C392.825 71.088 390.105 66.864 388.505 60.208C387.545 56.176 387.065 50.8 387.065 44.08V39.952H375.833V29.104C382.809 29.104 387.929 29.552 391.193 30.448C394.521 31.344 396.793 33.04 398.009 35.536C399.225 37.968 399.833 41.808 399.833 47.056C399.833 52.688 400.441 57.328 401.657 60.976C402.873 64.624 404.953 66.448 407.897 66.448Z" fill="#00D492"/>
<path d="M71.1016 21.7188C74.9357 21.7373 78.0244 24.0595 78.001 26.9053C78.0007 26.9322 77.9969 26.9595 77.9961 26.9863L77.6855 58.2891L76.6201 92.5967C76.6074 92.6441 76.5915 92.6902 76.5781 92.7363C76.3116 95.4991 74.4913 97.8132 71.5127 98.665C68.512 99.5231 65.0858 98.6828 62.4473 96.7178C62.4381 96.7187 62.4291 96.7197 62.4199 96.7207L25 69.2559C24.7628 69.1061 24.5346 68.9436 24.3203 68.7666C21.7097 66.6103 21.9291 63.2551 24.8105 61.2725C27.1844 59.6396 30.6236 59.4479 33.2217 60.6358C33.2529 60.6391 33.2851 60.6419 33.3164 60.6455L33.6445 60.8447C33.8683 60.9648 34.0858 61.0962 34.293 61.2383L52.542 72.3125C52.5483 72.3141 52.5552 72.3158 52.5615 72.3174C54.4783 73.5485 57.1249 73.917 59.3848 73.0918C61.6473 72.2654 62.9019 70.4679 62.8047 68.5684L64.1084 26.6201C64.1136 26.6141 64.1188 26.6076 64.124 26.6016C64.3149 23.867 67.3746 21.7011 71.1016 21.7188ZM5.09961 21.3711C8.07666 20.468 11.5248 21.2562 14.2148 23.1807C14.2236 23.1796 14.2325 23.1778 14.2412 23.1768L52.3721 50.0654C52.6178 50.2136 52.8544 50.375 53.0771 50.5518C55.7445 52.6684 55.6138 56.0271 52.7852 58.0527C50.4549 59.7212 47.0217 59.9633 44.3926 58.8145C44.3613 58.8116 44.3292 58.8098 44.2979 58.8066L43.9746 58.6172C43.7446 58.4994 43.5223 58.3701 43.3086 58.2295L24.7656 47.4316C24.7599 47.4303 24.7537 47.4301 24.748 47.4287C22.7989 46.226 20.1434 45.8967 17.9053 46.7559C15.6662 47.6156 14.4587 49.4296 14.6045 51.3262L14.415 93.29C14.4105 93.2955 14.4059 93.3012 14.4014 93.3066C14.285 96.0448 11.2816 98.2573 7.55371 98.2959C3.71969 98.3352 0.569462 96.0596 0.517578 93.2139C0.517195 93.1904 0.520507 93.1669 0.520508 93.1436L0 61.832L0.154297 27.5156C0.165418 27.4694 0.181583 27.4249 0.193359 27.3799C0.385052 24.6119 2.14275 22.2682 5.09961 21.3711Z" fill="#00D492"/>
</svg>
