<svg width="422" height="134" viewBox="0 0 422 134" fill="none" xmlns="http://www.w3.org/2000/svg">
<path d="M17.4392 110.499C17.3062 113.834 13.8859 116.525 9.6354 116.57C5.27536 116.616 1.68923 113.858 1.60409 110.406C1.60177 110.401 1.59877 110.396 1.59649 110.391L0.966509 72.1362L1.10312 30.6293C1.14364 30.4232 1.19115 30.2272 1.24054 30.0397C1.5065 26.735 3.4987 23.9522 6.82094 22.878C10.336 21.7415 14.4274 22.8115 17.5422 25.3389L60.9583 57.941C61.1521 58.0729 61.3405 58.2137 61.5212 58.3627L61.5313 58.3713L61.5326 58.3728C61.5529 58.3895 61.5749 58.4061 61.5949 58.423C64.6419 61.0026 64.4963 65.0921 61.2697 67.5572C58.6183 69.5826 54.7117 69.8804 51.712 68.492C51.6781 68.4886 51.644 68.4856 51.61 68.482L51.2681 68.2699C50.9698 68.1098 50.6828 67.9315 50.4083 67.7359L29.2672 54.6219C29.263 54.6209 29.2587 54.6202 29.2546 54.6192C27.0286 53.1515 23.9964 52.748 21.4421 53.7933C18.9443 54.8157 17.5744 56.9506 17.672 59.2045C17.6658 59.2159 17.658 59.2266 17.6519 59.2381L17.483 110.443C17.4685 110.462 17.4538 110.481 17.4392 110.499Z" fill="#00D492"/>
<path d="M74.203 29.2604C74.4084 25.9262 77.9034 23.2854 82.1675 23.3095C86.5487 23.3347 90.0825 26.1637 90.059 29.627C90.0586 29.6899 90.0531 29.7525 90.0503 29.815L89.7295 67.8646L88.5597 109.356C88.5143 109.561 88.4617 109.756 88.4079 109.942C88.0623 113.245 86.0017 115.998 82.6511 117.019C79.0962 118.103 75.0161 116.955 71.961 114.358L29.3776 81.0774C29.2079 80.9564 29.044 80.8272 28.885 80.6927L28.8326 80.6515C28.8319 80.6501 28.8303 80.648 28.8297 80.6466C28.8109 80.6304 28.7905 80.614 28.7719 80.5975C25.7897 77.9692 26.0364 73.8828 29.3236 71.4705C32.0242 69.4889 35.9367 69.2546 38.9012 70.6905C38.9352 70.6944 38.9696 70.6977 39.0037 70.7019L39.3375 70.9184C39.6336 71.0841 39.919 71.268 40.1902 71.4692L60.998 84.9195C61.0025 84.9206 61.0076 84.9215 61.012 84.9227C63.2013 86.426 66.2228 86.878 68.8024 85.874C71.3254 84.8919 72.7481 82.7796 72.7057 80.524C72.7122 80.5128 72.7201 80.502 72.7265 80.4908L74.1711 29.2997C74.1817 29.2868 74.1925 29.2732 74.203 29.2604Z" fill="#005D40"/>
<path d="M124.72 98.48C126.32 98.48 129.296 98.32 133.648 98C134.224 98 135.28 97.936 136.816 97.808L138.256 107.696C133.328 110 126.928 111.152 119.056 111.152C111.696 111.152 106.032 109.296 102.064 105.584C98.16 101.872 96.208 96.272 96.208 88.784C96.208 84.944 96.688 81.232 97.648 77.648C98.672 74.064 99.824 71.568 101.104 70.16C102.448 68.752 104.944 67.536 108.592 66.512C112.24 65.488 115.856 64.976 119.44 64.976C125.2 64.976 129.52 66 132.4 68.048C135.28 70.096 137.168 72.944 138.064 76.592C138.96 80.176 139.408 85.008 139.408 91.088C135.056 91.344 130.8 91.472 126.64 91.472H113.008C113.008 93.52 113.424 95.056 114.256 96.08C115.152 97.104 116.4 97.776 118 98.096C119.6 98.352 121.84 98.48 124.72 98.48ZM113.968 76.4C113.584 76.592 113.296 77.424 113.104 78.896C112.912 80.368 112.784 82.032 112.72 83.888H117.712C120.72 83.888 122.896 83.856 124.24 83.792C124.24 80.72 123.792 78.544 122.896 77.264C122.064 75.984 120.592 75.344 118.48 75.344C116.752 75.344 115.248 75.696 113.968 76.4ZM165.538 91.856C165.538 93.008 165.57 94.224 165.634 95.504C165.698 96.72 165.89 97.488 166.21 97.808C166.658 98.256 168.226 98.48 170.914 98.48L174.178 98.384C174.754 101.456 175.042 105.008 175.042 109.04C173.826 109.488 172.034 109.904 169.666 110.288C167.362 110.672 165.154 110.864 163.042 110.864C158.626 110.864 155.202 109.904 152.77 107.984C150.402 106 149.218 102.96 149.218 98.864V75.248H142.018V66.512L149.218 65.84L153.538 55.28L165.538 54.608V65.84H175.714V75.248H165.538V91.856ZM209.52 55.952H198.288V60.08C198.288 66.8 197.808 72.176 196.848 76.208C195.248 82.864 192.528 87.088 188.688 88.88V89.456C192.208 91.12 194.8 94.992 196.464 101.072C197.808 106.576 198.416 113.84 198.288 122.864H209.52V133.712C202.16 133.712 196.304 132.592 191.952 130.352C187.664 128.112 185.52 124.016 185.52 118.064C185.52 112.56 185.04 107.664 184.08 103.376C183.12 99.024 180.912 96.848 177.456 96.848C177.008 94.032 176.784 91.632 176.784 89.648C176.784 87.664 177.008 85.264 177.456 82.448C180.4 82.448 182.48 80.624 183.696 76.976C184.912 73.328 185.52 68.688 185.52 63.056C185.52 57.808 186.128 53.968 187.344 51.536C188.56 49.04 190.8 47.344 194.064 46.448C197.392 45.552 202.544 45.104 209.52 45.104V55.952ZM240.411 54.992C245.595 54.992 249.979 55.472 253.563 56.432C257.147 57.392 259.995 59.248 262.107 62C264.283 64.688 265.371 68.56 265.371 73.616C265.371 75.856 265.019 78.16 264.315 80.528C263.675 82.832 262.843 84.848 261.819 86.576C260.859 88.304 259.995 89.424 259.227 89.936C258.331 90.576 256.347 91.088 253.275 91.472C250.203 91.792 246.587 91.952 242.427 91.952C240.955 91.952 238.683 91.888 235.611 91.76V110H218.331V55.28C225.051 55.088 232.411 54.992 240.411 54.992ZM247.611 79.664C248.251 78.832 248.571 77.168 248.571 74.672C248.571 71.408 247.867 69.104 246.459 67.76C245.115 66.416 242.747 65.744 239.355 65.744C238.203 65.744 236.955 65.84 235.611 66.032V80.624C236.251 80.688 237.499 80.72 239.355 80.72C244.283 80.72 247.035 80.368 247.611 79.664ZM279.168 60.368C276.992 60.368 275.104 59.632 273.504 58.16C271.968 56.688 271.2 54.928 271.2 52.88C271.2 50.832 271.968 49.072 273.504 47.6C275.104 46.128 276.992 45.392 279.168 45.392C281.344 45.392 283.2 46.128 284.736 47.6C286.272 49.072 287.04 50.832 287.04 52.88C287.04 54.928 286.272 56.688 284.736 58.16C283.2 59.632 281.344 60.368 279.168 60.368ZM270.912 65.84H287.328V110H270.912V65.84ZM332.619 108.656C327.435 110.384 321.643 111.248 315.243 111.248C308.075 111.248 302.699 109.456 299.115 105.872C295.595 102.224 293.835 96.56 293.835 88.88C293.835 85.104 294.347 81.392 295.371 77.744C296.395 74.032 297.483 71.536 298.635 70.256C299.979 68.784 302.603 67.536 306.507 66.512C310.475 65.488 314.571 64.976 318.795 64.976C323.211 64.976 327.659 65.36 332.139 66.128C332.011 67.728 331.787 69.616 331.467 71.792C331.211 73.904 330.923 75.792 330.603 77.456C326.635 77.2 322.891 77.072 319.371 77.072C315.915 77.072 313.707 77.264 312.747 77.648C312.235 77.84 311.755 79.152 311.307 81.584C310.923 84.016 310.731 86.288 310.731 88.4C310.731 91.216 311.115 93.392 311.883 94.928C312.715 96.4 313.995 97.424 315.723 98C317.451 98.576 319.787 98.864 322.731 98.864C324.011 98.864 326.827 98.736 331.179 98.48L332.619 108.656ZM385.068 110H367.212L358.092 92.048C357.196 90.192 356.012 89.008 354.54 88.496V110H338.124V52.4L354.54 51.728V84.464C356.076 83.824 357.388 82.512 358.476 80.528L366.636 65.84L384.588 65.744L375.276 80.72C373.804 83.088 372.204 84.976 370.476 86.384C371.948 87.984 373.612 90.416 375.468 93.68L385.068 110ZM418.897 82.448C419.345 84.688 419.569 87.088 419.569 89.648C419.569 92.208 419.345 94.608 418.897 96.848C415.441 96.848 413.233 99.024 412.273 103.376C411.313 107.664 410.833 112.56 410.833 118.064C410.833 124.016 408.657 128.112 404.305 130.352C400.017 132.592 394.193 133.712 386.833 133.712V122.864H398.065C397.937 113.84 398.545 106.576 399.889 101.072C401.553 94.992 404.145 91.12 407.665 89.456V88.88C403.825 87.088 401.105 82.864 399.505 76.208C398.545 72.176 398.065 66.8 398.065 60.08V55.952H386.833V45.104C393.809 45.104 398.929 45.552 402.193 46.448C405.521 47.344 407.793 49.04 409.009 51.536C410.225 53.968 410.833 57.808 410.833 63.056C410.833 68.688 411.441 73.328 412.657 76.976C413.873 80.624 415.953 82.448 418.897 82.448Z" fill="#00D492"/>
</svg>
